<?xml version="1.0" encoding="UTF-8" standalone="no"?>
<!-- Created with Inkscape (http://www.inkscape.org/) -->

<svg
   version="1.1"
   id="svg230"
   width="991.79657"
   height="859.36481"
   viewBox="0 0 991.79657 859.36481"
   sodipodi:docname="{mk}(2).png"
   xmlns:inkscape="http://www.inkscape.org/namespaces/inkscape"
   xmlns:sodipodi="http://sodipodi.sourceforge.net/DTD/sodipodi-0.dtd"
   xmlns="http://www.w3.org/2000/svg"
   xmlns:svg="http://www.w3.org/2000/svg">
  <defs
     id="defs234" />
  <sodipodi:namedview
     id="namedview232"
     pagecolor="#ffffff"
     bordercolor="#000000"
     borderopacity="0.25"
     inkscape:showpageshadow="2"
     inkscape:pageopacity="0.0"
     inkscape:pagecheckerboard="0"
     inkscape:deskcolor="#d1d1d1"
     showgrid="false" />
  <g
     inkscape:groupmode="layer"
     inkscape:label="Image"
     id="g236"
     transform="translate(-4.0738039,-70.143517)">
    <g
       id="g240">
      <path
         style="fill:#e1e7ee"
         d="M 128,640.45793 C 113.79026,637.87631 106.23943,634.17062 98.644868,626.05142 92.28074,619.24765 89.76983,613.34066 89.207722,603.85024 88.360436,589.54497 91.810984,579.61259 107.39441,551.5 c 3.65852,-6.6 7.82351,-15.72543 9.25554,-20.27873 3.97475,-12.63821 2.60089,-18.74594 -5.46342,-24.28866 -4.63542,-3.18599 -6.51905,-7.22952 -5.75165,-12.3469 0.98072,-6.53994 3.71377,-10.11377 9.23046,-12.07008 13.52044,-4.79456 16.52066,-7.31506 20.45419,-17.18367 2.21691,-5.56187 2.33431,-7.12871 2.53491,-33.83196 0.23545,-31.34192 1.22459,-37.8645 7.53852,-49.71066 7.0718,-13.26805 23.44947,-26.02058 40.30704,-31.38523 27.71084,-8.81851 63.07594,-2.9586 79.14941,13.11487 8.22165,8.22165 8.93114,14.87747 1.83949,17.25651 -3.31401,1.11175 -4.90525,0.9981 -12.3955,-0.88534 -14.792,-3.71948 -21.93459,-2.64218 -29.84111,4.50088 -4.44654,4.01719 -8.71599,12.60433 -10.31295,20.74246 -0.5792,2.95158 -1.0223,15.51519 -0.98467,27.91913 0.0376,12.40394 -0.39348,24.98822 -0.95802,27.96506 -2.71566,14.31958 -11.5819,23.36544 -29.45645,30.05316 -3.0262,1.13225 -5.74442,2.45057 -6.04048,2.92961 -0.29606,0.47904 2.35887,2.93834 5.89984,5.46513 9.36365,6.68176 11.06252,9.91175 11.06347,21.03442 9.5e-4,11.18479 -2.24483,17.12116 -13.7276,36.28686 -4.37831,7.30777 -9.31332,16.50651 -10.96669,20.44165 -5.41782,12.89479 -3.95447,23.03411 4.10859,28.46781 4.74972,3.20084 10.93391,3.79339 21.47919,2.05809 C 205.70903,605.88628 208,606.5194 208,611.52491 c 0,4.64926 -1.84779,8.02798 -7.16979,13.11015 -5.77776,5.51736 -10.91311,8.58033 -19.69973,11.74984 -15.02636,5.42031 -36.60819,7.07479 -53.13048,4.07303 z m 636.5,0.5483 c -9.31787,-1.38697 -17.39635,-3.93152 -25.21135,-7.94104 -8.88274,-4.55733 -13.03048,-7.89661 -16.7122,-13.45474 -3.09343,-4.67 -3.26984,-7.91706 -0.57645,-10.61045 2.61963,-2.61963 7.65537,-2.5886 19.0408,0.11732 10.66586,2.5349 15.71669,2.05652 22.28821,-2.11102 5.89188,-3.73652 10.13378,-9.64444 12.86741,-17.92117 1.98203,-6.00105 2.19795,-8.96266 2.43438,-33.39045 0.28353,-29.29365 0.8955,-33.42854 6.17766,-41.7408 4.55883,-7.174 11.92938,-12.26483 24.64531,-17.02247 3.05042,-1.14131 5.54543,-2.60528 5.54444,-3.25326 -9.8e-4,-0.64798 -1.9909,-2.43477 -4.42203,-3.97065 -17.79182,-11.24001 -17.4517,-28.60705 1.14096,-58.25996 13.85936,-22.10391 17.24739,-34.71324 11.81696,-43.97956 -4.48633,-7.65534 -12.19598,-9.6653 -26.91082,-7.01583 C 785.80084,382.40078 783,381.74872 783,377.28054 c 0,-4.13728 3.78497,-10.94063 8.17931,-14.70202 14.23263,-12.18261 40.54325,-18.42512 66.02124,-15.66433 16.48344,1.78614 26.71804,5.90916 34.84707,14.03819 8.99312,8.99312 12.14858,19.49397 10.02547,33.36307 -1.70928,11.16573 -4.71679,18.55923 -15.18725,37.33555 -16.38697,29.38621 -18.05252,40.70503 -7.19479,48.89466 2.09492,1.58013 4.35714,3.56627 5.02715,4.41365 1.73469,2.19392 1.56174,9.30059 -0.34215,14.05887 -1.74691,4.36595 -4.17764,6.06496 -11.37605,7.95154 -7.49368,1.96396 -11.49801,5.25572 -14.88941,12.23982 -4.11164,8.46734 -5.11417,17.87133 -4.40184,41.29046 0.6763,22.23474 -0.64389,31.39993 -6.23994,43.31969 -6.17525,13.15348 -20.41321,25.62715 -36.64499,32.10413 -13.38155,5.33966 -31.35086,7.31115 -46.32382,5.08241 z M 365.34788,588.58019 c -13.48654,-3.27134 -23.94687,-11.95306 -26.98223,-22.39434 -2.35437,-8.09876 -1.38323,-18.2561 2.93386,-30.68585 1.91026,-5.5 6.89934,-18.93518 11.08684,-29.85595 C 356.57386,494.72327 360,484.68119 360,483.32831 c 0,-3.73388 -1.81104,-6.35141 -5.44499,-7.86977 -6.31023,-2.63659 -14.85111,2.02601 -20.01887,10.92861 -2.38577,4.11001 -23.21616,69.88602 -23.62889,74.61285 -0.45999,5.26793 0.22939,7.08708 4.51368,11.91097 4.8139,5.4202 5.02289,7.38401 1.1709,11.00276 -3.86879,3.63454 -11.36801,4.19088 -52.30644,3.88041 -34.35309,-0.26053 -39.14227,-0.48955 -41.90829,-2.00409 -6.17096,-3.37893 -5.03232,-7.79978 3.56158,-13.82806 3.34924,-2.34935 6.93562,-5.6644 7.96974,-7.36677 2.73663,-4.50504 30.30258,-94.39755 30.33602,-98.9257 0.0243,-3.2857 -0.70221,-4.57015 -5.10808,-9.03144 C 256.26192,453.72748 254,450.51951 254,449.35341 c 0,-5.5407 8.95039,-11.17981 23.73344,-14.95302 18.7974,-4.79783 38.30444,-4.99921 47.06067,-0.48584 7.9139,4.0792 14.14172,13.66661 14.18393,21.83545 0.0121,2.3375 0.41076,4.25 0.88596,4.25 0.4752,0 2.14416,-1.84727 3.7088,-4.10505 3.6835,-5.31529 13.58188,-14.2515 19.36825,-17.48557 14.87153,-8.31185 37.32158,-10.09828 50.58662,-4.02534 10.41391,4.76764 18.26841,14.77412 20.33953,25.91215 0.49051,2.63791 1.11678,5.02112 1.39169,5.29604 0.27492,0.27491 2.54011,-2.33337 5.03375,-5.79619 6.7517,-9.37581 15.28957,-17.17224 23.70736,-21.64857 8.40959,-4.47197 12.65846,-5.78273 22.92259,-7.07154 30.64416,-3.84782 51.45919,16.26881 47.28657,45.69998 -0.6023,4.24825 -5.62076,22.29308 -11.15213,40.09963 C 517.52567,534.68209 513,550.00459 513,550.92554 c 0,4.86694 5.51133,5.32043 10.57949,0.87052 3.55704,-3.12312 3.68621,-3.15465 5.12069,-1.25 2.077,2.75777 1.09114,10.95883 -2.06642,17.18998 -4.86376,9.59817 -18.65783,18.70567 -32.06742,21.17243 -8.30715,1.52815 -21.91294,1.3339 -29.34782,-0.41899 -12.87841,-3.03628 -20.80195,-8.73539 -25.327,-18.21677 -3.02102,-6.32998 -3.12309,-6.96176 -2.61408,-16.17995 0.58867,-10.6609 1.20639,-12.68142 14.61962,-47.82 C 456.35368,494.59778 460,484.11945 460,482.98758 c 0,-5.24345 -5.56134,-9.14588 -11.74117,-8.23888 -3.98371,0.58469 -11.41427,6.95402 -14.74694,12.6408 -1.35108,2.30544 -6.50484,17.34379 -11.45281,33.41856 -7.21795,23.4494 -8.80972,29.7176 -8.05244,31.7094 1.30721,3.43822 5.07291,3.2296 9.34058,-0.51746 1.87924,-1.65 3.91133,-3 4.51574,-3 1.65963,0 2.46707,4.56563 1.80141,10.18605 -1.55897,13.16306 -15.75278,25.60525 -33.50129,29.367 -8.0973,1.7162 -23.79483,1.73003 -30.8152,0.0271 z m 307.34344,-0.081 c -12.75838,-3.50737 -23.81582,-12.5467 -27.08522,-22.14186 -2.98992,-8.77492 -2.01053,-16.36503 4.28081,-33.17558 C 655.51903,518.13268 653.47891,513 641.86514,513 638.63931,513 636,513.15587 636,513.34637 c 0,0.19051 -3.14697,10.65301 -6.99326,23.25 -3.98628,13.05547 -6.99616,24.74948 -7,27.19647 -0.006,3.73688 0.59906,4.9405 4.67095,9.29367 4.17551,4.46396 4.57754,5.29135 3.74482,7.70716 -0.57405,1.66538 -2.46941,3.4756 -4.92768,4.70633 -3.80777,1.90635 -5.99311,2 -46.67067,2 -41.78242,0 -42.73497,-0.0439 -45.5,-2.0989 -1.59625,-1.18632 -2.96237,-3.25817 -3.14205,-4.76519 -0.33655,-2.82288 0.45948,-3.71661 8.81789,-9.90019 2.475,-1.83101 5.4822,-5.1081 6.68267,-7.28242 C 548.42513,558.48609 595,405.73295 595,401.70562 c 0,-2.28505 -1.25932,-4.17364 -5.5,-8.24825 -3.025,-2.90654 -5.5,-6.1628 -5.5,-7.23613 C 584,376.9726 610.21252,368 637.23145,368 c 17.75086,0 26.48762,3.62023 31.56295,13.07866 2.10773,3.92801 2.32061,5.36977 1.9078,12.92134 -0.40155,7.34564 -2.24628,14.27083 -13.58343,50.99272 -7.21532,23.371 -13.11877,43.0585 -13.11877,43.75 0,1.38825 7.39077,1.72913 13.03125,0.60103 5.53596,-1.10719 10.02733,-6.77101 14.19218,-17.89698 9.49131,-25.35508 22.84807,-38.21429 41.89815,-40.33741 19.40189,-2.16233 34.56113,4.6746 41.5644,18.74585 1.36895,2.75054 1.81402,5.97562 1.81402,13.14479 0,8.7576 -0.24102,9.92981 -3.08414,15 -3.4488,6.15031 -10.00138,11.27069 -16.75852,13.09559 -6.28413,1.69715 -19.3207,0.68154 -24.31061,-1.89391 -5.3908,-2.78236 -10.23716,-8.7173 -11.00249,-13.47384 -0.33382,-2.07469 -0.94494,-3.98106 -1.35805,-4.23638 -1.97957,-1.22344 -5.88559,3.95666 -8.45866,11.21772 -1.51843,4.28495 -3.65739,9.05423 -4.75325,10.5984 -1.09585,1.54416 -1.83087,2.92904 -1.63337,3.0775 0.1975,0.14846 3.79036,0.78283 7.98414,1.40971 19.42138,2.90308 30.20645,11.65278 31.53394,25.58281 0.34109,3.57918 -0.28718,8.12819 -2.08542,15.09947 -2.88713,11.19265 -3.1024,13.5941 -1.37357,15.32293 2.04877,2.04877 5.58168,1.33058 9.23541,-1.87743 1.92775,-1.69259 3.96841,-2.79103 4.53479,-2.44098 2.00594,1.23973 1.15791,12.70334 -1.33292,18.01841 -4.67329,9.97212 -17.68202,18.92803 -31.09515,21.40758 -7.86747,1.45438 -23.87133,1.23545 -29.85081,-0.40836 z"
         id="path254" />
      <path
         style="fill:#bbc3cd"
         d="M 98.946167,627.25 95.5,623.5 l 3.75,3.44617 c 2.0625,1.89539 3.75,3.58289 3.75,3.75 0,0.76362 -0.84622,0.0442 -4.053833,-3.44617 z M 200.5,625 c 0.99549,-1.1 2.03498,-2 2.30998,-2 0.275,0 -0.31449,0.9 -1.30998,2 -0.99549,1.1 -2.03498,2 -2.30998,2 -0.275,0 0.31449,-0.9 1.30998,-2 z M 836,619.5 c 1.29175,-1.375 2.57363,-2.5 2.84863,-2.5 0.275,0 -0.55688,1.125 -1.84863,2.5 -1.29175,1.375 -2.57363,2.5 -2.84863,2.5 -0.275,0 0.55688,-1.125 1.84863,-2.5 z m -627.92105,-8.08333 c 0.048,-1.16495 0.28494,-1.4019 0.60416,-0.60417 0.28887,0.72187 0.25335,1.58438 -0.0789,1.91667 -0.3323,0.33229 -0.56864,-0.25834 -0.52522,-1.3125 z M 344.40499,577.75 342.5,575.5 l 2.25,1.90499 c 2.11444,1.79022 2.70524,2.59501 1.90499,2.59501 -0.18976,0 -1.20226,-1.0125 -2.25,-2.25 z m 307,-1 -1.90499,-2.25 2.25,1.90499 c 2.11444,1.79022 2.70524,2.59501 1.90499,2.59501 -0.18976,0 -1.20226,-1.0125 -2.25,-2.25 z M 726.5,577 c 0.99549,-1.1 2.03498,-2 2.30998,-2 0.275,0 -0.31449,0.9 -1.30998,2 -0.99549,1.1 -2.03498,2 -2.30998,2 -0.275,0 0.31449,-0.9 1.30998,-2 z m -306,-1 c 0.99549,-1.1 2.03498,-2 2.30998,-2 0.275,0 -0.31449,0.9 -1.30998,2 -0.99549,1.1 -2.03498,2 -2.30998,2 -0.275,0 0.31449,-0.9 1.30998,-2 z M 230,568.62244 c 0,-0.20765 0.7875,-0.99515 1.75,-1.75 1.58606,-1.24387 1.62143,-1.2085 0.37756,0.37756 C 230.82119,568.91575 230,569.44548 230,568.62244 Z m 206.07895,-12.20577 c 0.048,-1.16495 0.28494,-1.4019 0.60416,-0.60417 0.28887,0.72187 0.25335,1.58438 -0.0789,1.91667 -0.33229,0.33229 -0.56864,-0.25834 -0.52522,-1.3125 z M 736.19495,555.5 c 0.0204,-1.65 0.2445,-2.20394 0.49804,-1.23097 0.25354,0.97297 0.23687,2.32297 -0.0371,3 -0.27393,0.67703 -0.48137,-0.11903 -0.46099,-1.76903 z m 117.05723,-7 c 0.0111,-2.2 0.21589,-2.98225 0.45508,-1.73834 0.23919,1.24391 0.23011,3.04391 -0.0202,4 -0.25029,0.95609 -0.446,-0.0617 -0.4349,-2.26166 z m -75.05723,-1 c 0.0204,-1.65 0.2445,-2.20394 0.49804,-1.23097 0.25354,0.97297 0.23687,2.32297 -0.0371,3 -0.27393,0.67703 -0.48137,-0.11903 -0.46099,-1.76903 z m 74.884,-7.08333 c 0.048,-1.16495 0.28494,-1.4019 0.60416,-0.60417 0.28887,0.72187 0.25335,1.58438 -0.0789,1.91667 -0.33229,0.33229 -0.56864,-0.25834 -0.52522,-1.3125 z M 778.19495,536.5 c 0.0204,-1.65 0.2445,-2.20394 0.49804,-1.23097 0.25354,0.97297 0.23687,2.32297 -0.0371,3 -0.27393,0.67703 -0.48137,-0.11903 -0.46099,-1.76903 z M 861,513.62244 c 0,-0.20765 0.7875,-0.99515 1.75,-1.75 1.58606,-1.24387 1.62143,-1.2085 0.37756,0.37756 C 861.82119,513.91575 861,514.44548 861,513.62244 Z M 802.87244,484.25 c -1.24387,-1.58606 -1.2085,-1.62143 0.37756,-0.37756 0.9625,0.75485 1.75,1.54235 1.75,1.75 0,0.82304 -0.82119,0.29331 -2.12756,-1.37244 z M 203,478.62244 c 0,-0.20765 0.7875,-0.99515 1.75,-1.75 1.58606,-1.24387 1.62143,-1.2085 0.37756,0.37756 C 203.82119,478.91575 203,479.44548 203,478.62244 Z M 448.5,449 c 0.99549,-1.1 2.03498,-2 2.30998,-2 0.275,0 -0.31449,0.9 -1.30998,2 -0.99549,1.1 -2.03498,2 -2.30998,2 -0.275,0 0.31449,-0.9 1.30998,-2 z M 330.87244,438.25 c -1.24387,-1.58606 -1.2085,-1.62143 0.37756,-0.37756 1.66575,1.30637 2.19548,2.12756 1.37244,2.12756 -0.20765,0 -0.99515,-0.7875 -1.75,-1.75 z m -30.60341,-7.94299 c 0.97297,-0.25354 2.32297,-0.23687 3,0.0371 0.67703,0.27393 -0.11903,0.48137 -1.76903,0.46099 -1.65,-0.0204 -2.20394,-0.2445 -1.23097,-0.49804 z m 422.54347,0.01 c 0.72187,-0.28887 1.58438,-0.25335 1.91667,0.0789 0.33229,0.33229 -0.25834,0.56864 -1.3125,0.52522 -1.16495,-0.048 -1.4019,-0.28494 -0.60417,-0.60416 z m -585.73355,-5.90022 c 0.048,-1.16495 0.28494,-1.4019 0.60416,-0.60417 0.28887,0.72187 0.25335,1.58438 -0.0789,1.91667 -0.3323,0.33229 -0.56864,-0.25834 -0.52522,-1.3125 z m 75,-2 c 0.048,-1.16495 0.28494,-1.4019 0.60416,-0.60417 0.28887,0.72187 0.25335,1.58438 -0.0789,1.91667 -0.3323,0.33229 -0.56864,-0.25834 -0.52522,-1.3125 z M 137.15789,412 c 0,-1.375 0.22698,-1.9375 0.50439,-1.25 0.27741,0.6875 0.27741,1.8125 0,2.5 -0.27741,0.6875 -0.50439,0.125 -0.50439,-1.25 z M 239.8125,377.31689 c 0.72187,-0.28887 1.58437,-0.25335 1.91667,0.0789 0.33229,0.33229 -0.25834,0.56864 -1.3125,0.52522 -1.16495,-0.048 -1.4019,-0.28494 -0.60417,-0.60416 z m -36,-31 c 0.72187,-0.28887 1.58437,-0.25335 1.91667,0.0789 0.33229,0.33229 -0.25834,0.56864 -1.3125,0.52522 -1.16495,-0.048 -1.4019,-0.28494 -0.60417,-0.60416 z"
         id="path252" />
      <path
         style="fill:#b2b9c4"
         d="m 727.8125,606.31689 c 0.72187,-0.28887 1.58438,-0.25335 1.91667,0.0789 0.33229,0.33229 -0.25834,0.56864 -1.3125,0.52522 -1.16495,-0.048 -1.4019,-0.28494 -0.60417,-0.60416 z M 625.40499,571.75 623.5,569.5 l 2.25,1.90499 c 2.11444,1.79022 2.70524,2.59501 1.90499,2.59501 -0.18976,0 -1.20226,-1.0125 -2.25,-2.25 z m 227.67396,-28.33333 c 0.048,-1.16495 0.28494,-1.4019 0.60416,-0.60417 0.28887,0.72187 0.25335,1.58438 -0.0789,1.91667 -0.33229,0.33229 -0.56864,-0.25834 -0.52522,-1.3125 z M 339,458.94098 c 0,-0.58246 0.45,-0.7809 1,-0.44098 0.55,0.33992 1,0.81648 1,1.05902 0,0.24254 -0.45,0.44098 -1,0.44098 -0.55,0 -1,-0.47656 -1,-1.05902 z M 137.07895,427.41667 c 0.048,-1.16495 0.28494,-1.4019 0.60416,-0.60417 0.28887,0.72187 0.25335,1.58438 -0.0789,1.91667 -0.3323,0.33229 -0.56864,-0.25834 -0.52522,-1.3125 z M 808.8125,379.31689 c 0.72187,-0.28887 1.58438,-0.25335 1.91667,0.0789 0.33229,0.33229 -0.25834,0.56864 -1.3125,0.52522 -1.16495,-0.048 -1.4019,-0.28494 -0.60417,-0.60416 z M 633.75,367.33772 c 0.6875,-0.27741 1.8125,-0.27741 2.5,0 0.6875,0.27741 0.125,0.50439 -1.25,0.50439 -1.375,0 -1.9375,-0.22698 -1.25,-0.50439 z"
         id="path250" />
      <path
         style="fill:#959eab"
         d="m 382.25,929.25004 c 64.7625,-0.14205 170.7375,-0.14205 235.5,0 64.7625,0.14205 11.775,0.25827 -117.75,0.25827 -129.525,0 -182.5125,-0.11622 -117.75,-0.25827 z M 88.157895,604 c 0,-1.375 0.226973,-1.9375 0.504386,-1.25 0.277412,0.6875 0.277412,1.8125 0,2.5 -0.277413,0.6875 -0.504386,0.125 -0.504386,-1.25 z m -0.07895,-5.58333 c 0.04798,-1.16495 0.284941,-1.4019 0.604167,-0.60417 0.288871,0.72187 0.253344,1.58438 -0.07895,1.91667 -0.332292,0.33229 -0.568641,-0.25834 -0.52522,-1.3125 z M 382.8125,590.31689 c 0.72187,-0.28887 1.58438,-0.25335 1.91667,0.0789 0.33229,0.33229 -0.25834,0.56864 -1.3125,0.52522 -1.16495,-0.048 -1.4019,-0.28494 -0.60417,-0.60416 z m 93,0 c 0.72187,-0.28887 1.58438,-0.25335 1.91667,0.0789 0.33229,0.33229 -0.25834,0.56864 -1.3125,0.52522 -1.16495,-0.048 -1.4019,-0.28494 -0.60417,-0.60416 z m 7,0 c 0.72187,-0.28887 1.58438,-0.25335 1.91667,0.0789 0.33229,0.33229 -0.25834,0.56864 -1.3125,0.52522 -1.16495,-0.048 -1.4019,-0.28494 -0.60417,-0.60416 z m 200,0 c 0.72187,-0.28887 1.58438,-0.25335 1.91667,0.0789 0.33229,0.33229 -0.25834,0.56864 -1.3125,0.52522 -1.16495,-0.048 -1.4019,-0.28494 -0.60417,-0.60416 z m 8,0 c 0.72187,-0.28887 1.58438,-0.25335 1.91667,0.0789 0.33229,0.33229 -0.25834,0.56864 -1.3125,0.52522 -1.16495,-0.048 -1.4019,-0.28494 -0.60417,-0.60416 z m -161.73355,-9.90022 c 0.048,-1.16495 0.28494,-1.4019 0.60416,-0.60417 0.28887,0.72187 0.25335,1.58438 -0.0789,1.91667 -0.33229,0.33229 -0.56864,-0.25834 -0.52522,-1.3125 z M 219,576.62244 c 0,-0.20765 0.7875,-0.99515 1.75,-1.75 1.58606,-1.24387 1.62143,-1.2085 0.37756,0.37756 C 219.82119,576.91575 219,577.44548 219,576.62244 Z M 854.29966,570 c 0,-3.025 0.18747,-4.2625 0.41659,-2.75 0.22913,1.5125 0.22913,3.9875 0,5.5 -0.22912,1.5125 -0.41659,0.275 -0.41659,-2.75 z m -76.04748,-14.5 c 0.0111,-2.2 0.21589,-2.98225 0.45508,-1.73834 0.23919,1.24391 0.23011,3.04391 -0.0202,4 -0.25029,0.95609 -0.446,-0.0617 -0.4349,-2.26166 z m -442.17323,0.91667 c 0.048,-1.16495 0.28494,-1.4019 0.60416,-0.60417 0.28887,0.72187 0.25335,1.58438 -0.0789,1.91667 -0.33229,0.33229 -0.56864,-0.25834 -0.52522,-1.3125 z M 643.15789,556 c 0,-1.375 0.22698,-1.9375 0.50439,-1.25 0.27741,0.6875 0.27741,1.8125 0,2.5 -0.27741,0.6875 -0.50439,0.125 -0.50439,-1.25 z m -213.07894,-0.58333 c 0.048,-1.16495 0.28494,-1.4019 0.60416,-0.60417 0.28887,0.72187 0.25335,1.58438 -0.0789,1.91667 -0.33229,0.33229 -0.56864,-0.25834 -0.52522,-1.3125 z M 717.40499,507.75 715.5,505.5 l 2.25,1.90499 c 1.2375,1.04774 2.25,2.06024 2.25,2.25 0,0.80025 -0.80479,0.20945 -2.59501,-1.90499 z M 4.0789474,502.41667 c 0.047984,-1.16495 0.2849403,-1.4019 0.6041666,-0.60417 0.2888706,0.72187 0.2533443,1.58438 -0.078947,1.91667 -0.3322917,0.33229 -0.5686404,-0.25834 -0.5252196,-1.3125 z M 995.15789,500 c 0,-1.375 0.22698,-1.9375 0.50439,-1.25 0.27741,0.6875 0.27741,1.8125 0,2.5 -0.27741,0.6875 -0.50439,0.125 -0.50439,-1.25 z M 722.8125,492.31689 c 0.72187,-0.28887 1.58438,-0.25335 1.91667,0.0789 0.33229,0.33229 -0.25834,0.56864 -1.3125,0.52522 -1.16495,-0.048 -1.4019,-0.28494 -0.60417,-0.60416 z M 646.25,489.28375 c 1.5125,-0.22913 3.9875,-0.22913 5.5,0 1.5125,0.22912 0.275,0.41659 -2.75,0.41659 -3.025,0 -4.2625,-0.18747 -2.75,-0.41659 z M 137.07895,452.41667 c 0.048,-1.16495 0.28494,-1.4019 0.60416,-0.60417 0.28887,0.72187 0.25335,1.58438 -0.0789,1.91667 -0.3323,0.33229 -0.56864,-0.25834 -0.52522,-1.3125 z M 348,449.62244 c 0,-0.20765 0.7875,-0.99515 1.75,-1.75 1.58606,-1.24387 1.62143,-1.2085 0.37756,0.37756 C 348.82119,449.91575 348,450.44548 348,449.62244 Z m -93,-5 c 0,-0.20765 0.7875,-0.99515 1.75,-1.75 1.58606,-1.24387 1.62143,-1.2085 0.37756,0.37756 C 255.82119,444.91575 255,445.44548 255,444.62244 Z M 137.07895,430.41667 c 0.048,-1.16495 0.28494,-1.4019 0.60416,-0.60417 0.28887,0.72187 0.25335,1.58438 -0.0789,1.91667 -0.3323,0.33229 -0.56864,-0.25834 -0.52522,-1.3125 z M 805.8125,379.31689 c 0.72187,-0.28887 1.58438,-0.25335 1.91667,0.0789 0.33229,0.33229 -0.25834,0.56864 -1.3125,0.52522 -1.16495,-0.048 -1.4019,-0.28494 -0.60417,-0.60416 z M 664.87244,375.25 c -1.24387,-1.58606 -1.2085,-1.62143 0.37756,-0.37756 1.66575,1.30637 2.19548,2.12756 1.37244,2.12756 -0.20765,0 -0.99515,-0.7875 -1.75,-1.75 z m -35.60341,-7.94299 c 0.97297,-0.25354 2.32297,-0.23687 3,0.0371 0.67703,0.27393 -0.11903,0.48137 -1.76903,0.46099 -1.65,-0.0204 -2.20394,-0.2445 -1.23097,-0.49804 z m 12.54347,0.01 c 0.72187,-0.28887 1.58438,-0.25335 1.91667,0.0789 0.33229,0.33229 -0.25834,0.56864 -1.3125,0.52522 -1.16495,-0.048 -1.4019,-0.28494 -0.60417,-0.60416 z M 381.75,70.250039 c 65.0375,-0.142029 171.4625,-0.142029 236.5,0 65.0375,0.142029 11.825,0.258234 -118.25,0.258234 -130.075,0 -183.2875,-0.116205 -118.25,-0.258234 z"
         id="path248" />
      <path
         style="fill:#798494"
         d="m 679.8125,590.31689 c 0.72187,-0.28887 1.58438,-0.25335 1.91667,0.0789 0.33229,0.33229 -0.25834,0.56864 -1.3125,0.52522 -1.16495,-0.048 -1.4019,-0.28494 -0.60417,-0.60416 z m 174.26645,-13.90022 c 0.048,-1.16495 0.28494,-1.4019 0.60416,-0.60417 0.28887,0.72187 0.25335,1.58438 -0.0789,1.91667 -0.33229,0.33229 -0.56864,-0.25834 -0.52522,-1.3125 z M 778.232,569 c 0,-1.925 0.2058,-2.7125 0.45733,-1.75 0.25152,0.9625 0.25152,2.5375 0,3.5 -0.25153,0.9625 -0.45733,0.175 -0.45733,-1.75 z m 0,-7 c 0,-1.925 0.2058,-2.7125 0.45733,-1.75 0.25152,0.9625 0.25152,2.5375 0,3.5 -0.25153,0.9625 -0.45733,0.175 -0.45733,-1.75 z m 75.92589,1 c 0,-1.375 0.22698,-1.9375 0.50439,-1.25 0.27741,0.6875 0.27741,1.8125 0,2.5 -0.27741,0.6875 -0.50439,0.125 -0.50439,-1.25 z m -518.07894,-9.58333 c 0.048,-1.16495 0.28494,-1.4019 0.60416,-0.60417 0.28887,0.72187 0.25335,1.58438 -0.0789,1.91667 -0.33229,0.33229 -0.56864,-0.25834 -0.52522,-1.3125 z M 787,509.62244 c 0,-0.20765 0.7875,-0.99515 1.75,-1.75 1.58606,-1.24387 1.62143,-1.2085 0.37756,0.37756 C 787.82119,509.91575 787,510.44548 787,509.62244 Z M 338.5,481 c 0.99549,-1.1 2.03498,-2 2.30998,-2 0.275,0 -0.31449,0.9 -1.30998,2 -0.99549,1.1 -2.03498,2 -2.30998,2 -0.275,0 0.31449,-0.9 1.30998,-2 z M 213.19495,450.5 c 0.0204,-1.65 0.2445,-2.20394 0.49804,-1.23097 0.25354,0.97297 0.23687,2.32297 -0.0371,3 -0.27393,0.67703 -0.48137,-0.11903 -0.46099,-1.76903 z m 0.037,-9.5 c 0,-1.925 0.2058,-2.7125 0.45733,-1.75 0.25152,0.9625 0.25152,2.5375 0,3.5 -0.25153,0.9625 -0.45733,0.175 -0.45733,-1.75 z m 534.64044,-0.75 c -1.24387,-1.58606 -1.2085,-1.62143 0.37756,-0.37756 1.66575,1.30637 2.19548,2.12756 1.37244,2.12756 -0.20765,0 -0.99515,-0.7875 -1.75,-1.75 z M 137.19495,434.5 c 0.0204,-1.65 0.2445,-2.20394 0.49804,-1.23097 0.25354,0.97297 0.23687,2.32297 -0.0371,3 -0.27393,0.67703 -0.48137,-0.11903 -0.46099,-1.76903 z m 127.67749,-71.25 c -1.24387,-1.58606 -1.2085,-1.62143 0.37756,-0.37756 0.9625,0.75485 1.75,1.54235 1.75,1.75 0,0.82304 -0.82119,0.29331 -2.12756,-1.37244 z m 627.53255,-2.5 -1.90499,-2.25 2.25,1.90499 c 1.2375,1.04774 2.25,2.06024 2.25,2.25 0,0.80025 -0.80479,0.20945 -2.59501,-1.90499 z M 752.87244,78.25 C 751.62857,76.663944 751.66394,76.628574 753.25,77.872445 754.91575,79.178814 755.44548,80 754.62244,80 c -0.20765,0 -0.99515,-0.7875 -1.75,-1.75 z"
         id="path246" />
      <path
         style="fill:#6a7687"
         d="m 142.78352,642.2616 c 2.90594,-0.20265 7.40594,-0.20052 10,0.005 2.59406,0.20525 0.21648,0.37104 -5.28352,0.36844 -5.5,-0.003 -7.62242,-0.17053 -4.71648,-0.37317 z M 776.25,642.2838 c 1.5125,-0.22913 3.9875,-0.22913 5.5,0 1.5125,0.22912 0.275,0.41659 -2.75,0.41659 -3.025,0 -4.2625,-0.18747 -2.75,-0.41659 z M 724.87244,624.25 c -1.24387,-1.58606 -1.2085,-1.62143 0.37756,-0.37756 0.9625,0.75485 1.75,1.54235 1.75,1.75 0,0.82304 -0.82119,0.29331 -2.12756,-1.37244 z M 443.40499,577.75 441.5,575.5 l 2.25,1.90499 c 2.11444,1.79022 2.70524,2.59501 1.90499,2.59501 -0.18976,0 -1.20226,-1.0125 -2.25,-2.25 z m -126.53255,-3.5 c -1.24387,-1.58606 -1.2085,-1.62143 0.37756,-0.37756 0.9625,0.75485 1.75,1.54235 1.75,1.75 0,0.82304 -0.82119,0.29331 -2.12756,-1.37244 z m 537.20651,-14.83333 c 0.048,-1.16495 0.28494,-1.4019 0.60416,-0.60417 0.28887,0.72187 0.25335,1.58438 -0.0789,1.91667 -0.33229,0.33229 -0.56864,-0.25834 -0.52522,-1.3125 z M 530.15789,555 c 0,-1.375 0.22698,-1.9375 0.50439,-1.25 0.27741,0.6875 0.27741,1.8125 0,2.5 -0.27741,0.6875 -0.50439,0.125 -0.50439,-1.25 z m 194.92106,-29.58333 c 0.048,-1.16495 0.28494,-1.4019 0.60416,-0.60417 0.28887,0.72187 0.25335,1.58438 -0.0789,1.91667 -0.33229,0.33229 -0.56864,-0.25834 -0.52522,-1.3125 z M 881,504.62244 c 0,-0.20765 0.7875,-0.99515 1.75,-1.75 1.58606,-1.24387 1.62143,-1.2085 0.37756,0.37756 C 881.82119,504.91575 881,505.44548 881,504.62244 Z m -776.92105,-7.20577 c 0.048,-1.16495 0.28494,-1.4019 0.60416,-0.60417 0.28887,0.72187 0.25335,1.58438 -0.0789,1.91667 -0.3323,0.33229 -0.56864,-0.25834 -0.52522,-1.3125 z M 438.5,481 c 0.99549,-1.1 2.03498,-2 2.30998,-2 0.275,0 -0.31449,0.9 -1.30998,2 -0.99549,1.1 -2.03498,2 -2.30998,2 -0.275,0 0.31449,-0.9 1.30998,-2 z M 201,481.62244 c 0,-0.20765 0.7875,-0.99515 1.75,-1.75 1.58606,-1.24387 1.62143,-1.2085 0.37756,0.37756 C 201.82119,481.91575 201,482.44548 201,481.62244 Z m 494,-7 c 0,-0.20765 0.7875,-0.99515 1.75,-1.75 1.58606,-1.24387 1.62143,-1.2085 0.37756,0.37756 C 695.82119,474.91575 695,475.44548 695,474.62244 Z M 259.40499,457.75 257.5,455.5 l 2.25,1.90499 c 1.2375,1.04774 2.25,2.06024 2.25,2.25 0,0.80025 -0.80479,0.20945 -2.59501,-1.90499 z m -46.32604,-3.33333 c 0.048,-1.16495 0.28494,-1.4019 0.60416,-0.60417 0.28887,0.72187 0.25335,1.58438 -0.0789,1.91667 -0.3323,0.33229 -0.56864,-0.25834 -0.52522,-1.3125 z m 40,-5 c 0.048,-1.16495 0.28494,-1.4019 0.60416,-0.60417 0.28887,0.72187 0.25335,1.58438 -0.0789,1.91667 -0.3323,0.33229 -0.56864,-0.25834 -0.52522,-1.3125 z m -116,-2 c 0.048,-1.16495 0.28494,-1.4019 0.60416,-0.60417 0.28887,0.72187 0.25335,1.58438 -0.0789,1.91667 -0.3323,0.33229 -0.56864,-0.25834 -0.52522,-1.3125 z M 137.27236,441 c 0,-2.475 0.19502,-3.4875 0.43337,-2.25 0.23836,1.2375 0.23836,3.2625 0,4.5 -0.23835,1.2375 -0.43337,0.225 -0.43337,-2.25 z M 687,442.62244 c 0,-0.20765 0.7875,-0.99515 1.75,-1.75 1.58606,-1.24387 1.62143,-1.2085 0.37756,0.37756 C 687.82119,442.91575 687,443.44548 687,442.62244 Z m -473.92105,-6.20577 c 0.048,-1.16495 0.28494,-1.4019 0.60416,-0.60417 0.28887,0.72187 0.25335,1.58438 -0.0789,1.91667 -0.3323,0.33229 -0.56864,-0.25834 -0.52522,-1.3125 z m 0,-23 c 0.048,-1.16495 0.28494,-1.4019 0.60416,-0.60417 0.28887,0.72187 0.25335,1.58438 -0.0789,1.91667 -0.3323,0.33229 -0.56864,-0.25834 -0.52522,-1.3125 z M 585.40499,390.75 583.5,388.5 l 2.25,1.90499 c 2.11444,1.79022 2.70524,2.59501 1.90499,2.59501 -0.18976,0 -1.20226,-1.0125 -2.25,-2.25 z m 317.78996,-4.25 c 0.0204,-1.65 0.2445,-2.20394 0.49804,-1.23097 0.25354,0.97297 0.23687,2.32297 -0.0371,3 -0.27393,0.67703 -0.48137,-0.11903 -0.46099,-1.76903 z m -320.116,-0.0833 c 0.048,-1.16495 0.28494,-1.4019 0.60416,-0.60417 0.28887,0.72187 0.25335,1.58438 -0.0789,1.91667 -0.33229,0.33229 -0.56864,-0.25834 -0.52522,-1.3125 z M 222,386.62244 c 0,-0.20765 0.7875,-0.99515 1.75,-1.75 1.58606,-1.24387 1.62143,-1.2085 0.37756,0.37756 C 222.82119,386.91575 222,387.44548 222,386.62244 Z m 565.8125,-4.30555 c 0.72187,-0.28887 1.58438,-0.25335 1.91667,0.0789 0.33229,0.33229 -0.25834,0.56864 -1.3125,0.52522 -1.16495,-0.048 -1.4019,-0.28494 -0.60417,-0.60416 z M 155,367.5 c 1.86578,-1.925 3.61733,-3.5 3.89233,-3.5 0.275,0 -1.02655,1.575 -2.89233,3.5 -1.86578,1.925 -3.61733,3.5 -3.89233,3.5 -0.275,0 1.02655,-1.575 2.89233,-3.5 z m 635,-4.87756 c 0,-0.20765 0.7875,-0.99515 1.75,-1.75 1.58606,-1.24387 1.62143,-1.2085 0.37756,0.37756 C 790.82119,362.91575 790,363.44548 790,362.62244 Z m -578.23834,-17.3297 c 1.24391,-0.23919 3.04391,-0.23011 4,0.0202 0.95609,0.25029 -0.0617,0.446 -2.26166,0.4349 -2.2,-0.0111 -2.98225,-0.21589 -1.73834,-0.45508 z m 629.98834,0.002 c 1.2375,-0.23836 3.2625,-0.23836 4.5,0 1.2375,0.23835 0.225,0.43337 -2.25,0.43337 -2.475,0 -3.4875,-0.19502 -2.25,-0.43337 z"
         id="path244" />
      <path
         style="fill:#465468"
         d="m 256.64007,927.36803 c -3.31759,-1.01895 -6.33251,-2.99768 -9.5,-6.23496 C 243.63032,917.546 214.12052,867.59843 126,716.09437 61.925,605.93135 8.4932901,513.70592 7.2628669,511.14898 4.6946003,505.81187 4.2895516,496.68042 6.369108,491 8.5050668,485.16552 243.03314,82.745757 246.34416,79.233934 c 1.69363,-1.796337 5.32239,-4.383837 8.06392,-5.75 L 259.39269,71 H 500 740.60731 l 5.22838,2.60541 c 2.87561,1.432975 6.61746,4.259971 8.31524,6.282211 4.50608,5.36726 239.50733,409.653699 240.23449,413.289499 1.11243,5.56215 0.64376,11.72728 -1.25905,16.56215 -1.03049,2.6184 -54.50123,95.21073 -118.82386,205.76073 -86.9099,149.37028 -118.12149,202.20128 -121.51005,205.67671 -8.33611,8.54983 15.10278,7.83214 -253.22396,7.75364 -208.12392,-0.0609 -238.67979,-0.2574 -242.92843,-1.56232 z M 161.6364,641.91775 c 8.99611,-1.25125 21.71208,-5.06363 28.74639,-8.61847 C 200.17637,628.35002 209,617.85819 209,611.16228 c 0,-5.14604 -1.72939,-5.66628 -13.98943,-4.20829 -14.46323,1.71999 -19.35066,0.94121 -24.13811,-3.84624 -8.61667,-8.61666 -5.95797,-20.41341 10.90619,-48.39125 17.16395,-28.47519 17.49051,-44.22331 1.15467,-55.68225 -5.72065,-4.01281 -6.06714,-4.46323 -4.38147,-5.69582 1.00672,-0.73614 2.58394,-1.33843 3.50492,-1.33843 3.3868,0 16.04068,-7.25535 20.59237,-11.80704 9.46397,-9.46397 11.87033,-19.24993 10.86703,-44.19296 -1.35143,-33.59751 3.60613,-48.93762 17.98383,-55.64715 6.1213,-2.85658 9.96312,-2.93048 19.56763,-0.37639 13.88456,3.69228 20.93237,2.08265 20.93237,-4.78068 0,-3.74948 -4.74534,-11.03401 -9.79122,-15.03042 -5.44207,-4.31021 -17.50898,-9.80113 -27.01031,-12.29079 -10.00549,-2.62175 -31.35002,-2.86928 -41.69847,-0.48356 -18.48352,4.26117 -34.38694,14.02672 -44.30994,27.20869 -10.23537,13.59693 -12.1736,22.51504 -12.14916,55.9003 0.0225,30.66059 -1.09162,36.57319 -8.33303,44.2252 -2.10172,2.2209 -5.48632,4.03587 -10.86919,5.82852 -8.97044,2.98744 -11.18222,5.15808 -12.76209,12.52478 -1.3906,6.48414 0.24197,10.5941 5.77023,14.52638 11.1269,7.91463 9.5736,19.25158 -6.60984,48.24269 -9.589363,17.17844 -12.619578,23.9891 -14.615627,32.84984 -2.85846,12.68909 -1.546478,23.72926 3.827267,32.206 3.515924,5.54614 12.05186,12.98577 17.83171,15.54151 12.5449,5.54711 33.47066,7.82137 50.35607,5.47283 z M 801,639.91003 c 11.97869,-2.99123 24.93425,-10.05989 33.83818,-18.4624 9.06442,-8.55397 13.59153,-15.66441 17.0543,-26.7861 2.45855,-7.89634 2.53495,-8.95759 2.35136,-32.66153 -0.23422,-30.23958 0.76058,-37.3056 6.49254,-46.11652 2.67512,-4.11209 5.9971,-6.12238 15.23013,-9.21648 7.63437,-2.55836 9.84846,-5.47415 10.74375,-14.14865 l 0.57426,-5.56401 -6.55899,-6.27481 c -4.86927,-4.65831 -6.73209,-7.19756 -7.23094,-9.85668 -1.40309,-7.4791 3.09993,-19.00317 18.49137,-47.32285 6.86982,-12.64022 9.56631,-20.04636 10.97986,-30.15713 3.21542,-22.99906 -10.65177,-40.439 -36.46582,-45.86088 -5.40062,-1.13433 -12.71138,-1.67578 -22.5,-1.66641 -12.29451,0.0118 -16.02103,0.40558 -24.5,2.58914 -18.3933,4.73675 -30.19236,12.17929 -35.05049,22.10895 -4.9112,10.03812 -1.52841,13.52721 10.63449,10.96866 19.59302,-4.12152 30.1171,1.2827 30.04943,15.43069 -0.0392,8.18807 -3.85442,17.43405 -14.47778,35.0858 C 800.85895,448.27697 797,458.47421 797,468.08374 c 0,9.77411 4.43579,17.1957 13.25,22.16876 2.0625,1.16368 3.75,2.6247 3.75,3.24671 0,0.62201 -2.97314,2.18053 -6.60697,3.46339 -13.10751,4.62734 -22.48034,12.80994 -26.70823,23.31663 -1.90237,4.72758 -2.16106,7.96032 -2.7384,34.22077 -0.69329,31.53427 -1.19981,34.7804 -6.80622,43.61889 -6.11298,9.63711 -14.47028,13.18583 -25.8804,10.98949 -3.71788,-0.71566 -9.3496,-1.79387 -12.51493,-2.39602 -7.00029,-1.33169 -10.71025,-0.27155 -12.5607,3.58931 -4.29195,8.95483 13.04765,23.96944 33.81585,29.28164 14.53765,3.71852 32.90584,3.84621 47,0.32672 z M 400,588.44744 c 17.33536,-5.26518 29.30296,-17.2853 30.70001,-30.83475 0.42977,-4.16821 0.15052,-5.57452 -1.51162,-7.61269 l -2.03876,-2.5 -3.24314,3.3008 c -3.8294,3.89748 -9.18136,4.27074 -9.69629,0.67624 -0.37818,-2.63995 16.21327,-56.40581 19.26376,-62.42565 1.29088,-2.54743 4.37192,-6.49815 6.84677,-8.77938 5.32699,-4.91024 10.02531,-6.17867 14.43661,-3.8975 6.18723,3.19954 5.91165,5.13397 -4.68375,32.87797 C 436.74324,544.15792 436.5,544.99565 436.5,556 c 0,8.57056 0.29351,10.08041 3,15.43248 3.82126,7.5565 11.71992,13.63304 21.87072,16.8254 5.92393,1.86305 9.32719,2.23136 20.12928,2.17846 11.35414,-0.0556 13.91962,-0.39168 20.26373,-2.65457 17.68377,-6.30764 28.06701,-17.68205 28.54509,-31.26996 0.14132,-4.01657 -0.26286,-5.88872 -1.54962,-7.17791 -1.65536,-1.65847 -1.90705,-1.58293 -5.12826,1.53919 -4.23412,4.10387 -8.9519,4.16742 -9.42149,0.12691 -0.1598,-1.375 4.25254,-17.125 9.8052,-35 5.55266,-17.875 10.49892,-35.67623 10.99169,-39.55828 2.16784,-17.07821 -3.55473,-31.06605 -16.30086,-39.84464 -6.77839,-4.66846 -13.94386,-6.57412 -24.70548,-6.57043 -21.81442,0.007 -39.71454,9.54445 -53.72298,28.62299 l -4.69474,6.39392 -1.21332,-5.94816 c -2.03385,-9.97077 -10.00558,-20.36012 -19.14676,-24.9535 -12.5487,-6.30563 -35.70561,-5.10705 -50.79368,2.62903 -5.87789,3.01377 -14.68598,10.45242 -19.777,16.70217 l -4.40903,5.41255 -0.67493,-5.0879 c -0.8598,-6.48144 -3.39084,-11.35988 -8.23283,-15.86831 -6.88824,-6.41372 -10.78465,-7.44165 -27.81655,-7.3384 -12.83022,0.0778 -16.44141,0.47073 -24.78721,2.69723 -5.37296,1.4334 -12.34796,3.90863 -15.5,5.50051 C 257.77124,441.54612 253,446.61434 253,449.65657 c 0,0.74844 2.475,4.05299 5.5,7.34343 3.3118,3.60241 5.5,6.89044 5.5,8.26441 0,3.67951 -28.57181,95.30669 -30.88761,99.05373 -1.16075,1.87815 -4.0234,4.65753 -6.36143,6.1764 -8.34573,5.4217 -10.00666,8.06959 -8.12978,12.96066 1.65764,4.31975 4.07238,4.5448 48.76406,4.5448 43.94903,0 46.02403,-0.17472 50.36476,-4.24093 3.30386,-3.0949 2.80458,-6.20211 -1.79909,-11.1965 -2.44329,-2.65066 -4.25441,-5.71532 -4.56682,-7.72766 -0.38062,-2.45172 2.31251,-12.4716 10.1692,-37.83491 5.87781,-18.975 11.72898,-36.56551 13.0026,-39.09002 1.27362,-2.52451 3.96956,-6.04216 5.99098,-7.81699 6.30073,-5.53212 11.3898,-6.50385 15.81827,-3.02041 4.2877,3.3727 3.56097,7.03714 -6.75467,34.05936 -12.24525,32.0769 -12.97547,34.59738 -12.99898,44.86806 -0.0153,6.68863 0.4626,9.58657 2.24263,13.59882 4.2484,9.57601 14.44132,16.99338 27.43001,19.9608 7.90426,1.80582 26.08283,1.20617 33.71587,-1.11218 z m 300.82366,1.51131 c 14.52528,-2.35703 27.84384,-11.02609 33.13742,-21.56916 3.05061,-6.07582 3.92918,-15.91524 1.68667,-18.88959 -1.48133,-1.96476 -1.56725,-1.94273 -4.87544,1.25 -2.37182,2.28904 -4.3144,3.25 -6.56992,3.25 C 721.21113,554 721,553.76998 721,550.51116 c 0,-1.91887 0.95625,-6.97441 2.125,-11.23454 2.33585,-8.51425 2.71816,-18.12467 0.90588,-22.77219 -4.02571,-10.32377 -16.38274,-17.76518 -33.18433,-19.98359 l -4.65345,-0.61443 2.29008,-4.2032 c 1.25954,-2.31177 3.07246,-6.67821 4.02869,-9.70321 1.56322,-4.94514 4.82615,-10 6.45504,-10 0.34005,0 1.18087,2.10347 1.86849,4.67438 2.85344,10.66869 14.25268,17.0767 28.58522,16.06899 16.96631,-1.19289 27.29546,-11.48675 28.34019,-28.24337 0.8352,-13.39585 -6.54256,-25.22739 -19.52502,-31.31183 -5.27697,-2.47314 -6.7357,-2.68657 -18.23579,-2.6682 -10.63311,0.017 -13.34548,0.35879 -18.16101,2.28856 -13.58407,5.44365 -23.82778,18.52911 -32.80096,41.90042 -4.54852,11.84696 -8.87265,14.8823 -20.0953,14.10594 L 644.39081,488.5 657.79582,445 c 8.42967,-27.35476 13.60355,-45.81256 13.93995,-49.73071 1.02318,-11.9172 -3.35115,-20.04979 -13.32126,-24.76641 -13.34847,-6.31483 -46.41012,-3.57943 -65.53762,5.42236 -5.46742,2.57307 -8.47395,5.54856 -9.40757,9.31043 -0.59427,2.3945 0.02,3.40728 4.92587,8.121 4.63526,4.45374 5.60481,5.96908 5.60481,8.75992 0,3.96257 -46.33504,156.96988 -48.87156,161.38341 -0.94829,1.65 -4.61788,5.16472 -8.15466,7.81048 -3.53678,2.64577 -6.77085,5.34577 -7.18683,6 -1.46571,2.30521 -0.75874,5.3674 1.79274,7.76521 l 2.57969,2.42431 43.17031,0.28559 c 47.01292,0.31101 49.57925,0.0547 53.08919,-5.30214 2.23351,-3.40876 2.10475,-3.82712 -2.91888,-9.48345 -6.23702,-7.02256 -6.09851,-9.13077 2.43096,-37 l 6.88619,-22.5 5.77304,0.2094 c 10.64886,0.38624 12.09139,5.39635 6.06419,21.06181 -6.07165,15.78103 -6.69678,21.67982 -3.44702,32.52655 1.57979,5.27287 10.2137,14.55693 16.43775,17.67554 11.14849,5.58604 24.78439,7.3212 39.17855,4.98545 z"
         id="path242" />
    </g>
  </g>
</svg>
